<svg width="128" height="5" viewBox="0 0 128 5" fill="none" xmlns="http://www.w3.org/2000/svg">
<path d="M7.40351 5C9.60003 5 10.7188 4.00948 11.706 3.13553C12.5973 2.3463 13.3014 1.7229 14.806 1.7229C16.3106 1.7229 17.0147 2.3463 17.9061 3.13554C18.8931 4.00948 20.0119 5 22.2086 5C24.4053 5 25.5239 4.00948 26.5111 3.13554C27.4024 2.3463 28.1064 1.7229 29.6109 1.7229C31.1154 1.7229 31.8193 2.3463 32.7106 3.13554C33.6976 4.00948 34.8164 5 37.0131 5C39.2095 5 40.328 4.00948 41.315 3.13554C42.2061 2.34631 42.9101 1.7229 44.4144 1.7229C45.9188 1.7229 46.6228 2.34631 47.5141 3.13554C48.4697 3.98167 49.5488 4.93707 51.6099 4.99703C53.6711 4.93708 54.7503 3.98166 55.706 3.13554C56.5973 2.34631 57.3014 1.7229 58.806 1.7229C58.8765 1.7229 58.9453 1.72428 59.0124 1.72697C60.377 1.78173 61.0565 2.38332 61.9061 3.13554C62.8931 4.00948 64.0119 5 66.2086 5C68.4053 5 69.5239 4.00948 70.5111 3.13554C71.4024 2.34631 72.1064 1.72291 73.6109 1.72291C75.1153 1.72291 75.8193 2.34631 76.7106 3.13554C77.6976 4.00948 78.8164 5.00001 81.0131 5.00001C83.2095 5.00001 84.328 4.00948 85.315 3.13554C86.1437 2.40165 86.8105 1.81114 88.1094 1.73194C88.1094 1.73194 88.0989 -0.0161067 88.1094 0.00655785C86.1123 0.0935946 85.0526 1.03207 84.1123 1.86461C83.2212 2.65385 82.5174 3.2771 81.0131 3.2771C79.5085 3.2771 78.8046 2.6537 77.9133 1.86461C76.9263 0.99053 75.8074 6.49522e-06 73.6109 6.30319e-06C71.4143 6.11115e-06 70.2956 0.990529 69.3084 1.86461C68.4171 2.6537 67.713 3.2771 66.2086 3.2771C64.7039 3.2771 63.9999 2.6537 63.1086 1.86461C62.2238 1.08111 61.2331 0.204055 59.4552 0.0306867C59.3128 0.0167979 59.1653 0.0074253 59.0124 0.00297873C56.9513 0.062928 55.8721 1.01835 54.9164 1.86447C54.0251 2.6537 53.321 3.2771 51.8164 3.2771C51.7459 3.2771 51.6771 3.27573 51.61 3.27304C50.2457 3.21828 49.5661 2.61657 48.7167 1.86461C47.7297 0.990528 46.6109 4.08123e-06 44.4144 3.8892e-06C42.218 3.69719e-06 41.0994 0.99067 40.1123 1.86461C39.2212 2.65384 38.5174 3.2771 37.0131 3.2771C35.5085 3.2771 34.8046 2.6537 33.9133 1.86461C32.9263 0.990526 31.8075 2.78483e-06 29.6109 2.5928e-06C27.4143 2.40076e-06 26.2956 0.990526 25.3084 1.86461C24.4172 2.6537 23.713 3.2771 22.2086 3.2771C20.7039 3.2771 19.9999 2.6537 19.1086 1.86461C18.1215 0.990525 17.0027 1.48844e-06 14.806 1.2964e-06C12.6093 1.10436e-06 11.4905 0.990524 10.5033 1.86461C9.61205 2.6537 8.90808 3.2771 7.40351 3.2771C5.89865 3.2771 5.19453 2.6537 4.30295 1.86446C3.31578 0.990523 2.19682 1.92052e-07 1.19209e-07 0C7.62311e-08 0.475807 0 1.7229 0 1.7229C1.50487 1.7229 2.20898 2.3463 3.10057 3.13553C4.08773 4.00947 5.20655 5 7.40351 5Z" fill="#FDBEDB"/>
<path d="M51.4035 5C53.6 5 54.7188 4.00948 55.706 3.13553C56.5973 2.3463 57.3014 1.7229 58.806 1.7229C60.3106 1.7229 61.0147 2.3463 61.9061 3.13554C62.8931 4.00948 64.0119 5 66.2086 5C68.4053 5 69.5239 4.00948 70.5111 3.13554C71.4024 2.3463 72.1064 1.7229 73.6109 1.7229C75.1154 1.7229 75.8193 2.3463 76.7106 3.13554C77.6976 4.00948 78.8164 5 81.0131 5C83.2095 5 84.328 4.00948 85.315 3.13554C86.2061 2.34631 86.9101 1.7229 88.4144 1.7229C89.9188 1.7229 90.6228 2.34631 91.5141 3.13554C92.4697 3.98167 93.5488 4.93707 95.6099 4.99703C97.6711 4.93708 98.7503 3.98166 99.706 3.13554C100.597 2.34631 101.301 1.7229 102.806 1.7229C102.877 1.7229 102.945 1.72428 103.012 1.72697C104.377 1.78173 105.056 2.38332 105.906 3.13554C106.893 4.00948 108.012 5 110.209 5C112.405 5 113.524 4.00948 114.511 3.13554C115.402 2.34631 116.106 1.72291 117.611 1.72291C119.115 1.72291 119.819 2.34631 120.711 3.13554C121.698 4.00948 122.816 5.00001 125.013 5.00001C126.113 5.00001 126.943 4.75139 127.622 4.39337V2.29028C126.927 2.86672 126.234 3.2771 125.013 3.2771C123.509 3.2771 122.805 2.6537 121.913 1.86461C120.926 0.99053 119.807 6.49522e-06 117.611 6.30319e-06C115.414 6.11115e-06 114.296 0.990529 113.308 1.86461C112.417 2.6537 111.713 3.2771 110.209 3.2771C108.704 3.2771 108 2.6537 107.109 1.86461C106.224 1.08111 105.233 0.204055 103.455 0.0306867C103.313 0.0167979 103.165 0.0074253 103.012 0.00297873C100.951 0.062928 99.8721 1.01835 98.9164 1.86447C98.0251 2.6537 97.321 3.2771 95.8164 3.2771C95.7459 3.2771 95.6771 3.27573 95.61 3.27304C94.2457 3.21828 93.5661 2.61657 92.7167 1.86461C91.7297 0.990528 90.6109 4.08123e-06 88.4144 3.8892e-06C86.218 3.69719e-06 85.0994 0.99067 84.1123 1.86461C83.2212 2.65384 82.5174 3.2771 81.0131 3.2771C79.5085 3.2771 78.8046 2.6537 77.9133 1.86461C76.9263 0.990526 75.8075 2.78483e-06 73.6109 2.5928e-06C71.4143 2.40076e-06 70.2956 0.990526 69.3084 1.86461C68.4172 2.6537 67.713 3.2771 66.2086 3.2771C64.7039 3.2771 63.9999 2.6537 63.1086 1.86461C62.1215 0.990525 61.0027 1.48844e-06 58.806 1.2964e-06C56.6093 1.10436e-06 55.4905 0.990524 54.5033 1.86461C53.6121 2.6537 52.9081 3.2771 51.4035 3.2771C49.8986 3.2771 49.1945 2.6537 48.3029 1.86446C47.3158 0.990523 46.1968 1.92052e-07 44 0L44 1.7229C45.5049 1.7229 46.209 2.3463 47.1006 3.13553C48.0877 4.00947 49.2065 5 51.4035 5Z" fill="#FDBEDB"/>
</svg>
