<svg width="18" height="22" fill="none" xmlns="http://www.w3.org/2000/svg"><path d="M17.8 19.017L16.54 4.832a.606.606 0 0 0-.603-.553h-2.591A4.35 4.35 0 0 0 9 0a4.35 4.35 0 0 0-4.346 4.279H2.062a.603.603 0 0 0-.602.553L.2 19.017c0 .018-.005.036-.005.054C.195 20.686 1.675 22 3.498 22h11.004c1.822 0 3.302-1.314 3.302-2.929 0-.018 0-.036-.004-.054zM9 1.215a3.135 3.135 0 0 1 3.131 3.064H5.87A3.135 3.135 0 0 1 9 1.215zm5.502 19.57H3.498c-1.143 0-2.07-.756-2.088-1.687l1.206-13.6h2.033v1.844c0 .338.27.608.608.608.337 0 .607-.27.607-.608V5.498h6.267v1.844c0 .338.27.608.607.608.338 0 .608-.27.608-.608V5.498h2.033l1.21 13.6c-.017.931-.949 1.687-2.087 1.687z" fill="#2C2C2C"/></svg>