<svg width="28" height="28" fill="none" xmlns="http://www.w3.org/2000/svg"><g clip-path="url(#clip0)" fill="#fff"><path d="M.957 17.85h.075V3.73c0-.678.552-1.23 1.23-1.23h7.105a.41.41 0 1 1 0 .82H2.262a.41.41 0 0 0-.41.41v14.12H3.39a5.38 5.38 0 0 1 3.601-1.38c1.332 0 2.61.49 3.6 1.38h6.292V3.73a.41.41 0 0 0-.41-.41H11.38a.41.41 0 1 1 0-.82h5.092c.678 0 1.23.552 1.23 1.23v1.857h3.912c.672 0 1.311.291 1.752.798l1.361 1.563a.41.41 0 0 1-.618.538l-1.361-1.562a1.503 1.503 0 0 0-1.134-.517h-1.762v5.854h6.227v-.745a2.05 2.05 0 0 0-.504-1.346l-.188-.216a.41.41 0 0 1 .619-.538l.188.216a2.87 2.87 0 0 1 .705 1.884v6.334h.143c.528 0 .957.429.957.956v2.509c0 .527-.43.956-.957.956h-2.048a3.643 3.643 0 0 1-3.615 3.23 3.643 3.643 0 0 1-3.615-3.23h-.404a.41.41 0 1 1 0-.82h.404a3.643 3.643 0 0 1 3.615-3.228 3.643 3.643 0 0 1 3.615 3.228h2.048a.137.137 0 0 0 .137-.136v-2.509a.137.137 0 0 0-.137-.136H24.97a.785.785 0 0 1-.528-.202 4.561 4.561 0 0 0-3.062-1.178c-1.133 0-2.22.418-3.062 1.178a.785.785 0 0 1-.528.202h-7.21a.786.786 0 0 1-.528-.202A4.561 4.561 0 0 0 6.99 17.29a4.558 4.558 0 0 0-3.062 1.178.785.785 0 0 1-.528.202H.957a.137.137 0 0 0-.137.136v2.509c0 .075.061.136.137.136h2.419a3.644 3.644 0 0 1 3.615-3.228 3.644 3.644 0 0 1 3.615 3.228h4.848a.41.41 0 1 1 0 .82h-4.848a3.644 3.644 0 0 1-3.615 3.23 3.644 3.644 0 0 1-3.615-3.23H.956A.958.958 0 0 1 0 21.315v-2.509c0-.527.43-.956.957-.956zm20.423 1.193a2.822 2.822 0 0 0-2.819 2.818 2.822 2.822 0 0 0 2.82 2.82 2.822 2.822 0 0 0 2.818-2.82 2.822 2.822 0 0 0-2.819-2.818zm4.7-4.266h-1.363a.393.393 0 0 0-.392.392v.172c0 .216.175.392.392.392h1.363v-.956zm-4.7 1.693c1.332 0 2.61.49 3.601 1.38h1.1v-1.297h-1.364a1.214 1.214 0 0 1-1.212-1.212v-.172c0-.668.543-1.212 1.212-1.212h1.363v-.876h-6.364a.684.684 0 0 1-.683-.684v-5.99h-1.33V17.85h.076a5.379 5.379 0 0 1 3.601-1.38zM6.991 24.68a2.822 2.822 0 0 0 2.819-2.819 2.822 2.822 0 0 0-2.819-2.818 2.822 2.822 0 0 0-2.819 2.818 2.822 2.822 0 0 0 2.819 2.82z"/><path d="M21.38 23.425a1.565 1.565 0 0 1-1.563-1.564c0-.861.701-1.563 1.563-1.563s1.563.702 1.563 1.564c0 .861-.7 1.563-1.563 1.563zm0-2.307a.744.744 0 1 0 .002 1.488.744.744 0 0 0-.002-1.488zm-14.388-.82c.861 0 1.563.702 1.563 1.564 0 .861-.702 1.563-1.563 1.563a1.565 1.565 0 0 1-1.564-1.564c0-.861.702-1.563 1.564-1.563zm0 2.307a.744.744 0 1 0-.002-1.488.744.744 0 0 0 .002 1.488zm14.12-8.614h1.061a.41.41 0 1 1 0 .82h-1.06a.41.41 0 0 1 0-.82zM5.01 9.344a.41.41 0 1 0 0-.82H3.623a.41.41 0 0 0-.41.41v3.426a.41.41 0 0 0 .82 0v-1.335H4.9a.41.41 0 0 0 0-.82h-.868v-.86h.979zm6.898.006a.41.41 0 1 0 0-.82h-1.441a.41.41 0 0 0-.41.41v3.42c0 .227.183.41.41.41h1.44a.41.41 0 1 0 0-.82h-1.03v-.89h.924a.41.41 0 1 0 0-.82h-.924v-.89h1.03zm3.209 0a.41.41 0 1 0 0-.82h-1.441a.41.41 0 0 0-.41.41v3.42c0 .227.183.41.41.41h1.44a.41.41 0 1 0 0-.82h-1.03v-.89h.924a.41.41 0 1 0 0-.82h-.924v-.89h1.03zm-6.037.472c0-.72-.609-1.307-1.357-1.307h-.918a.41.41 0 0 0-.41.41v3.451a.41.41 0 0 0 .82 0v-1.034l1.148 1.305a.409.409 0 1 0 .615-.542l-.9-1.022c.577-.15 1.003-.659 1.003-1.261zm-1.357.487c-.117 0-.32 0-.503.002l-.003-.976h.506c.291 0 .537.223.537.487s-.246.487-.537.487z"/></g><defs><clipPath id="clip0"><path fill="#fff" transform="matrix(-1 0 0 1 28 0)" d="M0 0h28v28H0z"/></clipPath></defs></svg>