<svg width="19" height="37" fill="none" xmlns="http://www.w3.org/2000/svg"><path d="M8.468 36.544l-.036-5.076a14.696 14.696 0 0 1-2.304-.576 11.986 11.986 0 0 1-2.232-1.08l.072 1.512H1.196V22.9h2.34c.336 2.016 1.056 3.54 2.16 4.572 1.104 1.008 2.496 1.512 4.176 1.512 1.272 0 2.256-.336 2.952-1.008.696-.696 1.044-1.56 1.044-2.592 0-.816-.252-1.476-.756-1.98-.48-.504-1.128-.936-1.944-1.296a37.02 37.02 0 0 0-2.556-1.116 24.746 24.746 0 0 1-3.888-2.016c-1.176-.792-2.124-1.74-2.844-2.844C1.16 15.004.8 13.66.8 12.1c0-.72.108-1.464.324-2.232a6.192 6.192 0 0 1 1.116-2.16c.528-.672 1.26-1.236 2.196-1.692.936-.456 2.124-.72 3.564-.792V.868h3.384l-.036 4.716a10.25 10.25 0 0 1 1.512.54c.504.216.972.492 1.404.828l-.108-1.476h2.808v8.388h-2.376c-.312-1.992-.924-3.504-1.836-4.536-.888-1.032-2.184-1.536-3.888-1.512-1.008 0-1.824.288-2.448.864-.624.576-.936 1.32-.936 2.232 0 .744.168 1.38.504 1.908.336.504.9.996 1.692 1.476.816.48 1.908 1.032 3.276 1.656.888.384 1.788.828 2.7 1.332.912.48 1.74 1.044 2.484 1.692a7.571 7.571 0 0 1 1.836 2.268c.456.864.684 1.884.684 3.06 0 1.896-.6 3.492-1.8 4.788-1.176 1.272-2.868 2.064-5.076 2.376l-.036 5.076H8.468z" fill="#2C2C2C"/></svg>