<svg width="19" height="38" fill="none" xmlns="http://www.w3.org/2000/svg"><path d="M8.538 37.814L8.5 32.57A12.248 12.248 0 0 1 5.84 32a11.96 11.96 0 0 1-2.432-1.102l.152 1.558H1.204v-8.322h1.71c.228 2.255.95 3.914 2.166 4.978 1.216 1.064 2.787 1.596 4.712 1.596 1.444 0 2.597-.418 3.458-1.254.887-.836 1.33-1.9 1.33-3.192 0-1.039-.304-1.9-.912-2.584-.583-.71-1.343-1.33-2.28-1.862a47.172 47.172 0 0 0-3.002-1.558 33.077 33.077 0 0 1-3.61-2.014c-1.14-.76-2.077-1.66-2.812-2.698C1.254 14.482.9 13.177.9 11.632c0-.659.114-1.368.342-2.128.253-.76.659-1.495 1.216-2.204.557-.71 1.305-1.292 2.242-1.748.963-.456 2.14-.71 3.534-.76V.308h2.546l-.038 4.598a8.81 8.81 0 0 1 1.938.532c.659.228 1.292.57 1.9 1.026l-.152-1.596h2.28v8.474h-1.786c-.127-1.267-.405-2.407-.836-3.42-.405-1.013-1.026-1.811-1.862-2.394-.836-.583-1.95-.874-3.344-.874-1.419 0-2.495.418-3.23 1.254-.71.836-1.064 1.786-1.064 2.85 0 1.368.52 2.47 1.558 3.306 1.039.81 2.42 1.634 4.142 2.47.963.481 1.913.988 2.85 1.52a16.432 16.432 0 0 1 2.622 1.786 7.792 7.792 0 0 1 1.9 2.356c.481.887.722 1.938.722 3.154a7.042 7.042 0 0 1-.836 3.382c-.532 1.039-1.343 1.9-2.432 2.584-1.09.684-2.457 1.102-4.104 1.254v5.244h-2.47z" fill="#2C2C2C"/></svg>