<svg width="15" height="31" fill="none" xmlns="http://www.w3.org/2000/svg"><path d="M6.53 30.59l-.03-4.14A9.67 9.67 0 0 1 4.4 26c-.72-.24-1.36-.53-1.92-.87l.12 1.23H.74v-6.57h1.35c.18 1.78.75 3.09 1.71 3.93.96.84 2.2 1.26 3.72 1.26 1.14 0 2.05-.33 2.73-.99.7-.66 1.05-1.5 1.05-2.52 0-.82-.24-1.5-.72-2.04-.46-.56-1.06-1.05-1.8-1.47-.74-.42-1.53-.83-2.37-1.23-1-.48-1.95-1.01-2.85-1.59-.9-.6-1.64-1.31-2.22-2.13C.78 12.17.5 11.14.5 9.92c0-.52.09-1.08.27-1.68.2-.6.52-1.18.96-1.74.44-.56 1.03-1.02 1.77-1.38.76-.36 1.69-.56 2.79-.6V.98H8.3l-.03 3.63c.52.08 1.03.22 1.53.42.52.18 1.02.45 1.5.81l-.12-1.26h1.8v6.69h-1.41c-.1-1-.32-1.9-.66-2.7-.32-.8-.81-1.43-1.47-1.89-.66-.46-1.54-.69-2.64-.69-1.12 0-1.97.33-2.55.99-.56.66-.84 1.41-.84 2.25 0 1.08.41 1.95 1.23 2.61.82.64 1.91 1.29 3.27 1.95.76.38 1.51.78 2.25 1.2.76.42 1.45.89 2.07 1.41.62.52 1.12 1.14 1.5 1.86.38.7.57 1.53.57 2.49 0 .96-.22 1.85-.66 2.67-.42.82-1.06 1.5-1.92 2.04-.86.54-1.94.87-3.24.99v4.14H6.53z" fill="#2C2C2C"/></svg>