<svg width="92" height="92" fill="none" xmlns="http://www.w3.org/2000/svg"><path d="M45.665 0C20.484 0 0 20.486 0 45.665S20.484 91.33 45.665 91.33c25.181 0 45.665-20.486 45.665-45.665C91.33 20.485 70.846 0 45.665 0zm0 87.524c-23.082 0-41.86-18.778-41.86-41.86 0-23.08 18.778-41.859 41.86-41.859 23.081 0 41.86 18.778 41.86 41.86 0 23.081-18.779 41.86-41.86 41.86z" fill="#FDBEDB"/><path fill-rule="evenodd" clip-rule="evenodd" d="M63.819 44.065L37.181 26.941a1.898 1.898 0 0 0-1.94-.071 1.9 1.9 0 0 0-.992 1.67v34.25a1.9 1.9 0 0 0 2.932 1.599L63.82 47.265a1.905 1.905 0 0 0 0-3.2zM38.054 32.026v27.277L59.27 45.665 38.054 32.026z" fill="#FDBEDB"/><path d="M38.054 59.303V32.026L59.27 45.665 38.054 59.303z" fill="#FDBEDB"/></svg>