<svg width="25" height="25" fill="none" xmlns="http://www.w3.org/2000/svg"><path d="M12.502 18a.73.73 0 0 1-.518-.196.73.73 0 0 1-.196-.518v-6.23a.7.7 0 0 1 .196-.518.73.73 0 0 1 .518-.196.7.7 0 0 1 .518.196.7.7 0 0 1 .196.518v6.23a.73.73 0 0 1-.196.518.7.7 0 0 1-.518.196zm0-8.904a.924.924 0 0 1-.658-.266.924.924 0 0 1-.266-.658c0-.252.088-.467.266-.644a.9.9 0 0 1 .658-.28c.252 0 .466.093.644.28.186.177.28.392.28.644a.9.9 0 0 1-.28.658.877.877 0 0 1-.644.266z" fill="#EAA8C6"/><circle cx="12.5" cy="12.5" r="12" stroke="#EAA8C6"/></svg>