<svg width="25" height="25" fill="none" xmlns="http://www.w3.org/2000/svg"><g clip-path="url(#clip0)" fill="#EAA8C6"><path d="M5.73 7.25h18.75a.52.52 0 1 0 0-1.042H5.73a.52.52 0 1 0 0 1.042zm18.75 5.73H5.73a.52.52 0 1 0 0 1.041h18.75a.52.52 0 1 0 0-1.042zm0 6.77H5.73a.52.52 0 1 0 0 1.042h18.75a.52.52 0 1 0 0-1.042zM2.604 5.167H.521a.52.52 0 0 0-.521.52v2.084c0 .288.233.52.52.52h2.084a.52.52 0 0 0 .521-.52V5.688a.52.52 0 0 0-.52-.521zm-.52 2.083h-.522a.52.52 0 1 1 .521-.52v.52zm.52 4.688H.521a.52.52 0 0 0-.521.52v2.084c0 .287.233.52.52.52h2.084a.52.52 0 0 0 .521-.52v-2.084a.52.52 0 0 0-.52-.52zm-.52 2.083h-.522a.52.52 0 1 1 .521-.521v.52zm.52 4.688H.521a.52.52 0 0 0-.521.52v2.084c0 .288.233.52.52.52h2.084a.52.52 0 0 0 .521-.52v-2.084a.52.52 0 0 0-.52-.52zm-.52 2.083h-.522a.52.52 0 1 1 .521-.521v.52z"/></g><defs><clipPath id="clip0"><path fill="#fff" d="M0 0h25v25H0z"/></clipPath></defs></svg>