<svg width="18" height="16" fill="none" xmlns="http://www.w3.org/2000/svg"><g clip-path="url(#clip0)" fill="#EAA8C6"><path d="M17.76 3.333L11.536 7.35l6.237 4.546c.145-.232.227-.496.227-.776V4.13c0-.289-.087-.56-.24-.797zm-1.726-.869H1.968c-.387 0-.748.095-1.053.26l7.762 4.928a.63.63 0 0 0 .65.001l7.692-4.965a2.23 2.23 0 0 0-.985-.224zm-5.357 5.44l-.723.466c-.285.179-.62.268-.954.268-.334 0-.668-.09-.953-.268l-.003-.002-.722-.458-6.365 4.64c.295.15.64.236 1.009.236h14.066c.37 0 .718-.087 1.015-.239l-6.37-4.643zM.205 3.39A1.453 1.453 0 0 0 0 4.13v6.99c0 .282.084.548.23.781l6.229-4.54-6.254-3.97z"/></g><defs><clipPath id="clip0"><path fill="#fff" d="M0 0h18v15.25H0z"/></clipPath></defs></svg>