<svg width="24" height="24" fill="none" xmlns="http://www.w3.org/2000/svg"><circle cx="12" cy="12" r="12" fill="#EAA8C6"/><path d="M12.507 13.78a.626.626 0 0 1-.444-.168.626.626 0 0 1-.168-.444c0-.312.08-.652.24-1.02.16-.376.408-.708.744-.996.224-.192.428-.38.612-.564.192-.192.344-.408.456-.648.12-.248.18-.548.18-.9 0-.256-.06-.496-.18-.72a1.393 1.393 0 0 0-.516-.54c-.216-.144-.484-.216-.804-.216-.584 0-1.02.16-1.308.48-.28.312-.42.724-.42 1.236a.626.626 0 0 1-.168.444.6.6 0 0 1-.444.168.626.626 0 0 1-.444-.168.626.626 0 0 1-.168-.444c0-.56.12-1.052.36-1.476a2.63 2.63 0 0 1 1.032-.996c.448-.248.968-.372 1.56-.372.52 0 .98.112 1.38.336.408.216.728.52.96.912.24.384.36.836.36 1.356 0 .448-.072.836-.216 1.164a3.12 3.12 0 0 1-.588.888 9.096 9.096 0 0 1-.852.768 1.295 1.295 0 0 0-.432.66c-.08.264-.12.48-.12.648a.626.626 0 0 1-.168.444.6.6 0 0 1-.444.168zm0 2.22a.826.826 0 0 1-.588-.24.826.826 0 0 1-.24-.588.8.8 0 0 1 .24-.588.806.806 0 0 1 .588-.252.78.78 0 0 1 .588.252.78.78 0 0 1 .252.588c0 .224-.084.42-.252.588a.8.8 0 0 1-.588.24z" fill="#fff"/></svg>