<svg width="43" height="58" viewBox="0 0 43 58" fill="none" xmlns="http://www.w3.org/2000/svg">
<path d="M21.5 0C9.64484 0 0 9.52831 0 21.2402C0 25.6137 1.33621 29.8149 3.86117 33.3857L20.7922 57.6329C20.9527 57.8627 21.2173 58 21.5 58C21.7827 58 22.0473 57.8627 22.2078 57.6329L39.1358 33.3898C41.6638 29.8149 43 25.6137 43 21.2402C43 9.52831 33.3552 0 21.5 0ZM37.723 32.4208L21.5 55.6542L5.27409 32.4167C2.949 29.1286 1.72 25.2639 1.72 21.2402C1.72 10.4653 10.5933 1.69922 21.5 1.69922C32.4067 1.69922 41.28 10.4653 41.28 21.2402C41.28 25.2639 40.051 29.1286 37.723 32.4208Z" fill="#2C2C2C"/>
<path d="M21.5 6.79688C18.2198 6.79688 15.1198 7.84609 12.535 9.83111C12.1601 10.1191 12.0924 10.6529 12.3839 11.0233C12.6754 11.3937 13.2157 11.4606 13.5906 11.1726C15.8708 9.4216 18.6057 8.49609 21.5 8.49609C28.6131 8.49609 34.4 14.2131 34.4 21.2402C34.4 28.2674 28.6131 33.9844 21.5 33.9844C14.3869 33.9844 8.6 28.2674 8.6 21.2402C8.6 18.381 9.53683 15.679 11.3092 13.4263C11.6007 13.0558 11.5331 12.5221 11.1581 12.2341C10.783 11.9462 10.2429 12.0131 9.95135 12.3835C7.94204 14.9372 6.88 17.9998 6.88 21.2402C6.88 29.2044 13.4385 35.6836 21.5 35.6836C29.5615 35.6836 36.12 29.2044 36.12 21.2402C36.12 13.2761 29.5615 6.79688 21.5 6.79688Z" fill="#2C2C2C"/>
<path fill-rule="evenodd" clip-rule="evenodd" d="M37.723 32.4208L21.5 55.6542L5.27409 32.4167C2.949 29.1286 1.72 25.2639 1.72 21.2402C1.72 10.4653 10.5933 1.69922 21.5 1.69922C32.4067 1.69922 41.28 10.4653 41.28 21.2402C41.28 25.2639 40.051 29.1286 37.723 32.4208ZM12.535 9.83111C15.1198 7.84609 18.2198 6.79688 21.5 6.79688C29.5615 6.79688 36.12 13.2761 36.12 21.2402C36.12 29.2044 29.5615 35.6836 21.5 35.6836C13.4385 35.6836 6.88 29.2044 6.88 21.2402C6.88 17.9998 7.94204 14.9372 9.95135 12.3835C10.2429 12.0131 10.783 11.9462 11.1581 12.2341C11.5331 12.5221 11.6007 13.0558 11.3092 13.4263L13.5906 11.1726C13.2157 11.4606 12.6754 11.3937 12.3839 11.0233C12.0924 10.6529 12.1601 10.1191 12.535 9.83111Z" fill="#2C2C2C"/>
</svg>
