<svg width="18" height="16" viewBox="0 0 18 16" fill="none" xmlns="http://www.w3.org/2000/svg">
<g clip-path="url(#clip0)">
<path d="M12.7866 0H5.21277C4.48846 0 3.90332 0.497665 3.90332 1.11132V14.1401C3.90332 14.7519 4.48846 15.25 5.21277 15.25H12.7866C13.5098 15.25 14.0972 14.7523 14.0972 14.1401V1.11132C14.0966 0.497665 13.5098 0 12.7866 0ZM13.1149 12.3559H4.88555V1.87466H13.1149V12.3559ZM10.7556 1.12769H7.24427V0.80329H10.7562L10.7556 1.12769ZM12.2583 0.979446C12.2583 1.13635 12.1071 1.26341 11.9225 1.26341C11.7373 1.26341 11.5868 1.13587 11.5868 0.979446C11.5868 0.823024 11.7373 0.695479 11.9225 0.695479C12.1077 0.694998 12.2583 0.822542 12.2583 0.979446ZM10.5983 14.066H7.4005V13.2324H10.5983V14.066Z" fill="white"/>
</g>
<defs>
<clipPath id="clip0">
<rect width="18" height="15.25" fill="white"/>
</clipPath>
</defs>
</svg>
