<svg width="18" height="16" viewBox="0 0 18 16" fill="none" xmlns="http://www.w3.org/2000/svg">
<g clip-path="url(#clip0)">
<path d="M17.7608 3.33276L11.5366 7.35007L17.7736 11.8965C17.9185 11.6644 18.001 11.4002 18.001 11.1199V4.13005C18.001 3.8414 17.9139 3.56973 17.7608 3.33276Z" fill="white"/>
<path d="M16.0341 2.46362H1.96807C1.5809 2.46362 1.21974 2.55926 0.915039 2.72362L8.67705 7.65226C8.87153 7.77318 9.13211 7.77342 9.32691 7.65306L17.0187 2.68841C16.729 2.54574 16.3927 2.46362 16.0341 2.46362Z" fill="white"/>
<path d="M10.6768 7.90381L9.9539 8.37039C9.66882 8.54872 9.33459 8.63789 9.0005 8.63789C8.66634 8.63789 8.33228 8.54875 8.0471 8.37039L8.04404 8.36849L7.32218 7.91012L0.957031 12.5499C1.2522 12.7 1.59733 12.7865 1.96591 12.7865H16.0319C16.4029 12.7865 16.7502 12.699 17.0466 12.5471L10.6768 7.90381Z" fill="white"/>
<path d="M0.205137 3.39026C0.0740742 3.61332 0 3.86441 0 4.13006V11.12C0 11.4022 0.0835312 11.6682 0.230379 11.9014L6.45887 7.36119L0.205137 3.39026Z" fill="white"/>
</g>
<defs>
<clipPath id="clip0">
<rect width="18" height="15.25" fill="white"/>
</clipPath>
</defs>
</svg>
