<svg width="14" height="16" viewBox="0 0 14 16" fill="none" xmlns="http://www.w3.org/2000/svg">
<path d="M6.5918 0C2.95706 0 0 2.50529 0 5.58472C0 6.73463 0.409676 7.83927 1.18382 8.77813L6.37478 15.1535C6.424 15.2139 6.50514 15.25 6.5918 15.25C6.67846 15.25 6.7596 15.2139 6.80882 15.1535L11.9989 8.7792C12.7739 7.83927 13.1836 6.73463 13.1836 5.58472C13.1836 2.50529 10.2265 0 6.5918 0ZM11.5657 8.52442L6.5918 14.6332L1.61701 8.52335C0.904148 7.65881 0.527344 6.64266 0.527344 5.58472C0.527344 2.75164 3.24784 0.446777 6.5918 0.446777C9.93575 0.446777 12.6562 2.75164 12.6562 5.58472C12.6562 6.64266 12.2794 7.65881 11.5657 8.52442Z" fill="white"/>
<path d="M6.5918 1.78711C5.58612 1.78711 4.63567 2.06298 3.84318 2.5849C3.72821 2.66062 3.70747 2.80097 3.79684 2.89836C3.88621 2.99576 4.05186 3.01333 4.16682 2.93762C4.86591 2.47723 5.70442 2.23389 6.5918 2.23389C8.77264 2.23389 10.5469 3.73705 10.5469 5.58472C10.5469 7.43238 8.77264 8.93555 6.5918 8.93555C4.41095 8.93555 2.63672 7.43238 2.63672 5.58472C2.63672 4.83294 2.92395 4.1225 3.46736 3.5302C3.55672 3.43277 3.53598 3.29245 3.42102 3.21674C3.30602 3.14102 3.14044 3.15863 3.05104 3.25599C2.43499 3.92744 2.10938 4.73271 2.10938 5.58472C2.10938 7.67873 4.12017 9.38232 6.5918 9.38232C9.06342 9.38232 11.0742 7.67873 11.0742 5.58472C11.0742 3.4907 9.06342 1.78711 6.5918 1.78711Z" fill="white"/>
<path fill-rule="evenodd" clip-rule="evenodd" d="M11.5657 8.52442L6.5918 14.6332L1.61701 8.52335C0.904148 7.65881 0.527344 6.64266 0.527344 5.58472C0.527344 2.75164 3.24784 0.446777 6.5918 0.446777C9.93575 0.446777 12.6562 2.75164 12.6562 5.58472C12.6562 6.64266 12.2794 7.65881 11.5657 8.52442ZM3.84318 2.5849C4.63567 2.06298 5.58612 1.78711 6.5918 1.78711C9.06342 1.78711 11.0742 3.4907 11.0742 5.58472C11.0742 7.67873 9.06342 9.38232 6.5918 9.38232C4.12017 9.38232 2.10938 7.67873 2.10938 5.58472C2.10938 4.73271 2.43499 3.92744 3.05104 3.25599C3.14044 3.15863 3.30602 3.14102 3.42102 3.21674C3.53598 3.29245 3.55672 3.43277 3.46736 3.5302L4.16682 2.93762C4.05186 3.01333 3.88621 2.99576 3.79684 2.89836C3.70747 2.80097 3.72821 2.66062 3.84318 2.5849Z" fill="white"/>
</svg>
