<svg width="89" height="5" fill="none" xmlns="http://www.w3.org/2000/svg"><path d="M8.294 5c2.197 0 3.316-.99 4.303-1.864.89-.79 1.595-1.413 3.1-1.413 1.504 0 2.208.623 3.1 1.413C19.784 4.009 20.903 5 23.099 5c2.197 0 3.316-.99 4.303-1.864.891-.79 1.595-1.413 3.1-1.413 1.504 0 2.208.623 3.1 1.413C34.587 4.009 35.706 5 37.903 5c2.196 0 3.315-.99 4.302-1.864.89-.79 1.595-1.413 3.099-1.413 1.504 0 2.208.623 3.1 1.413.955.846 2.034 1.801 4.096 1.861 2.06-.06 3.14-1.015 4.096-1.861.89-.79 1.595-1.413 3.1-1.413.07 0 .139.001.206.004 1.365.055 2.044.656 2.894 1.409C63.784 4.009 64.903 5 67.099 5c2.197 0 3.316-.99 4.303-1.864.891-.79 1.595-1.413 3.1-1.413 1.504 0 2.208.623 3.1 1.413C78.587 4.009 79.706 5 81.903 5c2.196 0 3.315-.99 4.302-1.864C87.034 2.402 87.7 1.81 89 1.732c0 0-.01-1.748 0-1.725-1.997.087-3.057 1.025-3.997 1.858-.891.789-1.595 1.412-3.1 1.412-1.504 0-2.208-.623-3.1-1.412C77.818.99 76.699 0 74.502 0c-2.196 0-3.315.99-4.302 1.865-.891.789-1.595 1.412-3.1 1.412-1.505 0-2.209-.623-3.1-1.412-.885-.784-1.875-1.66-3.653-1.834a6.514 6.514 0 0 0-.443-.028c-2.061.06-3.14 1.015-4.096 1.861-.891.79-1.595 1.413-3.1 1.413-.07 0-.14-.001-.206-.004-1.365-.055-2.044-.656-2.894-1.408C48.62.99 47.502 0 45.305 0c-2.196 0-3.315.99-4.302 1.865-.891.789-1.595 1.412-3.1 1.412-1.504 0-2.208-.623-3.1-1.412C33.818.99 32.699 0 30.503 0c-2.197 0-3.316.99-4.303 1.865-.891.789-1.595 1.412-3.1 1.412-1.505 0-2.209-.623-3.1-1.412C19.012.99 17.893 0 15.697 0 13.5 0 12.38.99 11.394 1.865c-.891.789-1.595 1.412-3.1 1.412-1.505 0-2.209-.623-3.1-1.413C4.206.991 3.087 0 .89 0v1.723c1.504 0 2.209.623 3.1 1.413C4.978 4.009 6.097 5 8.294 5z" fill="#FDBEDB"/></svg>