<svg width="5" height="89" fill="none" xmlns="http://www.w3.org/2000/svg"><path d="M5 80.72c0-2.196-.99-3.315-1.864-4.302-.79-.891-1.413-1.595-1.413-3.1 0-1.504.623-2.208 1.413-3.1C4.009 69.231 5 68.112 5 65.916c0-2.197-.99-3.316-1.864-4.303-.79-.891-1.413-1.595-1.413-3.1 0-1.504.623-2.208 1.413-3.1C4.009 54.428 5 53.309 5 51.112c0-2.196-.99-3.315-1.864-4.302-.79-.89-1.413-1.595-1.413-3.1 0-1.504.623-2.208 1.413-3.099.846-.955 1.801-2.035 1.861-4.096-.06-2.06-1.015-3.14-1.861-4.096-.79-.891-1.413-1.595-1.413-3.1 0-.07.001-.139.004-.206.055-1.365.656-2.044 1.409-2.894C4.009 25.231 5 24.112 5 21.916c0-2.197-.99-3.316-1.864-4.303-.79-.891-1.413-1.595-1.413-3.1 0-1.504.623-2.208 1.413-3.1C4.009 10.428 5 9.309 5 7.112c0-2.196-.99-3.315-1.864-4.302C2.402 1.981 1.81 1.314 1.732.015c0 0-1.748.01-1.725 0 .087 1.997 1.025 3.057 1.858 3.997.789.891 1.412 1.595 1.412 3.1 0 1.504-.623 2.208-1.412 3.099C.99 11.198 0 12.317 0 14.513c0 2.197.99 3.316 1.865 4.303.789.891 1.412 1.595 1.412 3.1 0 1.504-.623 2.208-1.412 3.1C1.08 25.9.205 26.89.03 28.669c-.014.142-.024.29-.028.443.06 2.06 1.015 3.14 1.861 4.096.79.891 1.413 1.595 1.413 3.1 0 .07-.001.14-.004.206-.055 1.364-.656 2.044-1.408 2.893C.99 40.395 0 41.514 0 43.71c0 2.196.99 3.315 1.865 4.302.789.891 1.412 1.595 1.412 3.1 0 1.504-.623 2.208-1.412 3.099C.99 55.198 0 56.317 0 58.513c0 2.197.99 3.316 1.865 4.303.789.891 1.412 1.595 1.412 3.1 0 1.504-.623 2.208-1.412 3.1C.99 70.003 0 71.122 0 73.318c0 2.197.99 3.316 1.865 4.303.789.891 1.412 1.595 1.412 3.1 0 1.505-.623 2.209-1.413 3.1C.991 84.808 0 85.927 0 88.124h1.723c0-1.505.623-2.209 1.413-3.1C4.009 84.037 5 82.918 5 80.72z" fill="#FDBEDB"/></svg>