<svg width="22" height="22" fill="none" xmlns="http://www.w3.org/2000/svg"><path d="M17.632 6.875a3.442 3.442 0 0 1-3.438-3.438A3.442 3.442 0 0 1 17.632 0a3.442 3.442 0 0 1 3.437 3.438 3.442 3.442 0 0 1-3.437 3.437zm0-5.5a2.065 2.065 0 0 0-2.063 2.063c0 1.137.926 2.062 2.063 2.062a2.065 2.065 0 0 0 2.062-2.063 2.065 2.065 0 0 0-2.062-2.062zm0 20.625a3.442 3.442 0 0 1-3.438-3.438 3.442 3.442 0 0 1 3.438-3.437 3.442 3.442 0 0 1 3.437 3.438A3.442 3.442 0 0 1 17.632 22zm0-5.5a2.065 2.065 0 0 0-2.063 2.063c0 1.137.926 2.062 2.063 2.062a2.065 2.065 0 0 0 2.062-2.063 2.065 2.065 0 0 0-2.062-2.062zM4.34 14.438A3.442 3.442 0 0 1 .902 11 3.442 3.442 0 0 1 4.34 7.562 3.442 3.442 0 0 1 7.777 11a3.442 3.442 0 0 1-3.437 3.438zm0-5.5A2.065 2.065 0 0 0 2.277 11c0 1.138.926 2.063 2.063 2.063A2.065 2.065 0 0 0 6.402 11 2.065 2.065 0 0 0 4.34 8.937z" fill="#2C2C2C"/><path d="M6.733 10.33a.686.686 0 0 1-.341-1.283l8.506-4.85a.687.687 0 0 1 .68 1.195L7.072 10.24a.689.689 0 0 1-.339.09zm8.505 7.563a.682.682 0 0 1-.34-.09l-8.505-4.85a.688.688 0 0 1 .68-1.194l8.506 4.849a.688.688 0 0 1-.341 1.285z" fill="#2C2C2C"/></svg>