<svg width="43" height="58" fill="none" xmlns="http://www.w3.org/2000/svg"><path d="M21.5 0C9.645 0 0 9.528 0 21.24c0 4.374 1.336 8.575 3.861 12.146l16.931 24.247a.863.863 0 0 0 1.416 0L39.136 33.39A20.934 20.934 0 0 0 43 21.24C43 9.528 33.355 0 21.5 0zm16.223 32.42L21.5 55.655 5.274 32.417A19.258 19.258 0 0 1 1.72 21.24C1.72 10.465 10.593 1.7 21.5 1.7c10.907 0 19.78 8.765 19.78 19.54 0 4.024-1.229 7.889-3.557 11.18z" fill="#2C2C2C"/><path d="M21.5 6.797c-3.28 0-6.38 1.05-8.965 3.034a.843.843 0 0 0-.151 1.192.867.867 0 0 0 1.207.15A12.874 12.874 0 0 1 21.5 8.496c7.113 0 12.9 5.717 12.9 12.744s-5.787 12.744-12.9 12.744S8.6 28.267 8.6 21.24c0-2.859.937-5.561 2.71-7.814a.843.843 0 0 0-.152-1.192.867.867 0 0 0-1.207.15A14.193 14.193 0 0 0 6.88 21.24c0 7.964 6.558 14.444 14.62 14.444 8.061 0 14.62-6.48 14.62-14.444S29.562 6.797 21.5 6.797z" fill="#2C2C2C"/><path fill-rule="evenodd" clip-rule="evenodd" d="M37.723 32.42L21.5 55.655 5.274 32.417A19.258 19.258 0 0 1 1.72 21.24C1.72 10.465 10.593 1.7 21.5 1.7c10.907 0 19.78 8.765 19.78 19.54 0 4.024-1.229 7.889-3.557 11.18zM12.535 9.832A14.591 14.591 0 0 1 21.5 6.797c8.061 0 14.62 6.48 14.62 14.443 0 7.964-6.558 14.444-14.62 14.444S6.88 29.204 6.88 21.24c0-3.24 1.062-6.303 3.071-8.856a.867.867 0 0 1 1.207-.15.843.843 0 0 1 .151 1.192l2.282-2.253a.867.867 0 0 1-1.207-.15.843.843 0 0 1 .151-1.192z" fill="#2C2C2C"/></svg>