<svg width="14" height="16" fill="none" xmlns="http://www.w3.org/2000/svg"><path d="M6.592 0C2.957 0 0 2.505 0 5.585c0 1.15.41 2.254 1.184 3.193l5.19 6.375c.05.06.131.097.218.097a.28.28 0 0 0 .217-.097l5.19-6.374c.775-.94 1.185-2.044 1.185-3.194C13.184 2.505 10.227 0 6.592 0zm4.974 8.524l-4.974 6.11-4.975-6.11C.904 7.658.527 6.642.527 5.583c0-2.832 2.72-5.137 6.065-5.137 3.344 0 6.064 2.305 6.064 5.138 0 1.058-.377 2.074-1.09 2.94z" fill="#fff"/><path d="M6.592 1.787c-1.006 0-1.956.276-2.749.798-.115.076-.136.216-.046.313.09.098.255.115.37.04a4.39 4.39 0 0 1 2.425-.704c2.18 0 3.955 1.503 3.955 3.35 0 1.848-1.774 3.352-3.955 3.352S2.637 7.432 2.637 5.585c0-.752.287-1.463.83-2.055.09-.097.069-.238-.046-.313a.297.297 0 0 0-.37.039c-.616.671-.942 1.477-.942 2.329 0 2.094 2.011 3.797 4.483 3.797 2.471 0 4.482-1.703 4.482-3.797 0-2.094-2.01-3.798-4.482-3.798z" fill="#fff"/><path fill-rule="evenodd" clip-rule="evenodd" d="M11.566 8.524l-4.974 6.11-4.975-6.11C.904 7.658.527 6.642.527 5.583c0-2.832 2.72-5.137 6.065-5.137 3.344 0 6.064 2.305 6.064 5.138 0 1.058-.377 2.074-1.09 2.94zm-7.723-5.94a4.983 4.983 0 0 1 2.749-.797c2.471 0 4.482 1.704 4.482 3.798 0 2.094-2.01 3.797-4.482 3.797-2.472 0-4.483-1.703-4.483-3.797 0-.852.326-1.658.942-2.329a.297.297 0 0 1 .37-.04c.115.076.136.217.046.314l.7-.592a.297.297 0 0 1-.37-.04c-.09-.097-.069-.237.046-.313z" fill="#fff"/></svg>