<svg width="18" height="16" fill="none" xmlns="http://www.w3.org/2000/svg"><g clip-path="url(#clip0)"><path d="M12.787 0H5.213c-.725 0-1.31.498-1.31 1.111v13.03c0 .61.585 1.109 1.31 1.109h7.574c.723 0 1.31-.498 1.31-1.11V1.111C14.097.498 13.51 0 12.787 0zm.328 12.356h-8.23V1.875h8.23v10.48zm-2.36-11.228h-3.51V.803h3.511v.325zm1.503-.149c0 .157-.15.284-.335.284-.186 0-.336-.127-.336-.284 0-.156.15-.284.335-.284.186 0 .336.128.336.284zm-1.66 13.087H7.4v-.834h3.198v.834z" fill="#fff"/></g><defs><clipPath id="clip0"><path fill="#fff" d="M0 0h18v15.25H0z"/></clipPath></defs></svg>