<svg width="89" height="5" viewBox="0 0 89 5" fill="none" xmlns="http://www.w3.org/2000/svg">
<path d="M8.29414 5C10.4907 5 11.6095 4.00948 12.5966 3.13553C13.4879 2.3463 14.192 1.7229 15.6966 1.7229C17.2012 1.7229 17.9053 2.3463 18.7967 3.13554C19.7838 4.00948 20.9026 5 23.0992 5C25.2959 5 26.4146 4.00948 27.4017 3.13554C28.293 2.3463 28.997 1.7229 30.5016 1.7229C32.006 1.7229 32.7099 2.3463 33.6012 3.13554C34.5882 4.00948 35.7071 5 37.9037 5C40.1001 5 41.2186 4.00948 42.2056 3.13554C43.0968 2.34631 43.8007 1.7229 45.305 1.7229C46.8094 1.7229 47.5134 2.34631 48.4047 3.13554C49.3603 3.98167 50.4394 4.93707 52.5006 4.99703C54.5617 4.93708 55.6409 3.98166 56.5966 3.13554C57.4879 2.34631 58.192 1.7229 59.6966 1.7229C59.7671 1.7229 59.8359 1.72428 59.9031 1.72697C61.2676 1.78173 61.9471 2.38332 62.7967 3.13554C63.7837 4.00948 64.9026 5 67.0992 5C69.2959 5 70.4146 4.00948 71.4017 3.13554C72.293 2.34631 72.997 1.72291 74.5015 1.72291C76.006 1.72291 76.7099 2.34631 77.6012 3.13554C78.5882 4.00948 79.7071 5.00001 81.9037 5.00001C84.1001 5.00001 85.2186 4.00948 86.2056 3.13554C87.0343 2.40165 87.7011 1.81114 89.0001 1.73194C89.0001 1.73194 88.9895 -0.0161067 89.0001 0.00655785C87.003 0.0935946 85.9432 1.03207 85.003 1.86461C84.1118 2.65385 83.408 3.2771 81.9037 3.2771C80.3992 3.2771 79.6952 2.6537 78.8039 1.86461C77.8169 0.99053 76.6981 6.49522e-06 74.5015 6.30319e-06C72.3049 6.11115e-06 71.1862 0.990529 70.1991 1.86461C69.3078 2.6537 68.6036 3.2771 67.0992 3.2771C65.5945 3.2771 64.8905 2.6537 63.9992 1.86461C63.1144 1.08111 62.1237 0.204055 60.3459 0.0306867C60.2034 0.0167979 60.056 0.0074253 59.9031 0.00297873C57.842 0.062928 56.7628 1.01835 55.807 1.86447C54.9157 2.6537 54.2116 3.2771 52.707 3.2771C52.6365 3.2771 52.5677 3.27573 52.5006 3.27304C51.1364 3.21828 50.4567 2.61657 49.6074 1.86461C48.6204 0.990528 47.5015 4.08123e-06 45.305 3.8892e-06C43.1086 3.69719e-06 41.99 0.99067 41.003 1.86461C40.1118 2.65384 39.408 3.2771 37.9037 3.2771C36.3992 3.2771 35.6952 2.6537 34.8039 1.86461C33.8169 0.990526 32.6981 2.78483e-06 30.5016 2.5928e-06C28.3049 2.40076e-06 27.1862 0.990526 26.1991 1.86461C25.3078 2.6537 24.6037 3.2771 23.0992 3.2771C21.5945 3.2771 20.8905 2.6537 19.9993 1.86461C19.0121 0.990525 17.8933 1.48844e-06 15.6966 1.2964e-06C13.4999 1.10436e-06 12.3811 0.990524 11.394 1.86461C10.5027 2.6537 9.79871 3.2771 8.29414 3.2771C6.78927 3.2771 6.08515 2.6537 5.19357 1.86446C4.20641 0.990523 3.08744 1.92052e-07 0.890625 0C0.890625 0.475807 0.890625 1.7229 0.890625 1.7229C2.39549 1.7229 3.09961 2.3463 3.99119 3.13553C4.97836 4.00947 6.09717 5 8.29414 5Z" fill="#FDBEDB"/>
</svg>
