<svg width="5" height="89" viewBox="0 0 5 89" fill="none" xmlns="http://www.w3.org/2000/svg">
<path d="M5 80.7208C5 78.5242 4.00948 77.4054 3.13553 76.4183C2.3463 75.527 1.7229 74.8228 1.7229 73.3183C1.7229 71.8137 2.3463 71.1096 3.13553 70.2182C4.00948 69.2311 5 68.1123 5 65.9157C5 63.719 4.00948 62.6003 3.13553 61.6132C2.3463 60.7219 1.7229 60.0179 1.7229 58.5133C1.7229 57.0089 2.3463 56.3049 3.13554 55.4137C4.00948 54.4267 5 53.3078 5 51.1112C5 48.9148 4.00948 47.7963 3.13554 46.8093C2.3463 45.9181 1.7229 45.2141 1.7229 43.7099C1.7229 42.2055 2.3463 41.5015 3.13554 40.6102C3.98166 39.6546 4.93707 38.5755 4.99703 36.5143C4.93708 34.4532 3.98166 33.374 3.13554 32.4183C2.3463 31.527 1.7229 30.8229 1.7229 29.3183C1.7229 29.2477 1.72427 29.179 1.72697 29.1118C1.78173 27.7473 2.38332 27.0678 3.13554 26.2182C4.00948 25.2312 5 24.1123 5 21.9157C5 19.719 4.00948 18.6003 3.13554 17.6132C2.3463 16.7219 1.7229 16.0179 1.7229 14.5133C1.7229 13.0089 2.34631 12.3049 3.13554 11.4137C4.00948 10.4267 5 9.30783 5 7.11116C5 4.91479 4.00948 3.79626 3.13554 2.80925C2.40164 1.9806 1.81114 1.31378 1.73194 0.0148238C1.73194 0.0148238 -0.0161105 0.0253906 0.006554 0.0148239C0.0935908 2.01192 1.03207 3.07166 1.86461 4.01192C2.65384 4.90306 3.2771 5.60689 3.2771 7.11116C3.2771 8.61573 2.6537 9.3197 1.86461 10.211C0.990527 11.198 3.18157e-06 12.3168 3.08556e-06 14.5133C2.98954e-06 16.71 0.990526 17.8287 1.86461 18.8158C2.6537 19.7071 3.2771 20.4112 3.2771 21.9157C3.2771 23.4204 2.6537 24.1244 1.86461 25.0156C1.08111 25.9005 0.204053 26.8911 0.0306841 28.669C0.0167953 28.8115 0.00742272 28.9589 0.00297615 29.1118C0.0629255 31.1729 1.01835 32.2521 1.86447 33.2079C2.6537 34.0992 3.2771 34.8033 3.2771 36.3078C3.2771 36.3784 3.27573 36.4472 3.27303 36.5143C3.21828 37.8785 2.61657 38.5582 1.86461 39.4075C0.990526 40.3945 2.0438e-06 41.5134 1.94779e-06 43.7099C1.85178e-06 45.9062 0.990669 47.0249 1.86461 48.0119C2.65384 48.9031 3.2771 49.6069 3.2771 51.1112C3.2771 52.6157 2.6537 53.3197 1.86461 54.211C0.990525 55.198 1.39448e-06 56.3168 1.29847e-06 58.5133C1.20245e-06 60.71 0.990525 61.8287 1.86461 62.8158C2.6537 63.7071 3.2771 64.4112 3.2771 65.9157C3.2771 67.4204 2.6537 68.1243 1.86461 69.0156C0.990524 70.0028 7.4523e-07 71.1216 6.49211e-07 73.3183C5.53191e-07 75.5149 0.990524 76.6338 1.86461 77.6209C2.6537 78.5122 3.2771 79.2162 3.2771 80.7208C3.2771 82.2256 2.6537 82.9297 1.86446 83.8213C0.990523 84.8085 9.60259e-08 85.9275 0 88.1243C0.475807 88.1243 1.7229 88.1243 1.7229 88.1243C1.7229 86.6194 2.3463 85.9153 3.13553 85.0237C4.00947 84.0365 5 82.9177 5 80.7208Z" fill="#FDBEDB"/>
</svg>
