<svg width="22" height="22" viewBox="0 0 22 22" fill="none" xmlns="http://www.w3.org/2000/svg">
<path d="M17.6318 6.875C15.7372 6.875 14.1943 5.33316 14.1943 3.4375C14.1943 1.54184 15.7372 0 17.6318 0C19.5267 0 21.0693 1.54184 21.0693 3.4375C21.0693 5.33316 19.5267 6.875 17.6318 6.875ZM17.6318 1.375C16.4952 1.375 15.5693 2.29984 15.5693 3.4375C15.5693 4.57516 16.4952 5.5 17.6318 5.5C18.7685 5.5 19.6943 4.57516 19.6943 3.4375C19.6943 2.29984 18.7685 1.375 17.6318 1.375Z" fill="#2C2C2C"/>
<path d="M17.6318 22C15.7372 22 14.1943 20.4582 14.1943 18.5625C14.1943 16.6668 15.7372 15.125 17.6318 15.125C19.5267 15.125 21.0693 16.6668 21.0693 18.5625C21.0693 20.4582 19.5267 22 17.6318 22ZM17.6318 16.5C16.4952 16.5 15.5693 17.4248 15.5693 18.5625C15.5693 19.7002 16.4952 20.625 17.6318 20.625C18.7685 20.625 19.6943 19.7002 19.6943 18.5625C19.6943 17.4248 18.7685 16.5 17.6318 16.5Z" fill="#2C2C2C"/>
<path d="M4.33984 14.4375C2.44502 14.4375 0.902344 12.8957 0.902344 11C0.902344 9.10434 2.44502 7.5625 4.33984 7.5625C6.23466 7.5625 7.77734 9.10434 7.77734 11C7.77734 12.8957 6.23466 14.4375 4.33984 14.4375ZM4.33984 8.9375C3.20319 8.9375 2.27734 9.86234 2.27734 11C2.27734 12.1377 3.20319 13.0625 4.33984 13.0625C5.4765 13.0625 6.40234 12.1377 6.40234 11C6.40234 9.86234 5.4765 8.9375 4.33984 8.9375Z" fill="#2C2C2C"/>
<path d="M6.73301 10.3307C6.49366 10.3307 6.26086 10.206 6.13531 9.98429C5.94732 9.6543 6.06196 9.23435 6.39195 9.04653L14.8977 4.19727C15.2267 4.0076 15.6475 4.12308 15.8345 4.45407C16.0225 4.78406 15.9078 5.20384 15.5778 5.39183L7.07206 10.2409C6.96481 10.3013 6.84849 10.3307 6.73301 10.3307Z" fill="#2C2C2C"/>
<path d="M15.2379 17.8932C15.1224 17.8932 15.0059 17.8638 14.8987 17.8026L6.39285 12.9533C6.06287 12.7655 5.94839 12.3455 6.13621 12.0155C6.3232 11.6847 6.74315 11.5701 7.07313 11.7589L15.5788 16.608C15.9088 16.796 16.0234 17.2158 15.8356 17.5457C15.709 17.7685 15.4762 17.8932 15.2379 17.8932Z" fill="#2C2C2C"/>
</svg>
