<svg width="28" height="28" viewBox="0 0 28 28" fill="none" xmlns="http://www.w3.org/2000/svg">
<g clip-path="url(#clip0)">
<path d="M0.956703 17.8498H1.0319V3.72979C1.0319 3.05155 1.58369 2.49976 2.26193 2.49976H9.36731C9.59377 2.49976 9.77731 2.68329 9.77731 2.90975C9.77731 3.13621 9.59372 3.31974 9.36731 3.31974H2.26188C2.0358 3.31974 1.85188 3.50365 1.85188 3.72973V17.8497H3.39008C4.38085 16.9597 5.65901 16.4698 6.99098 16.4698C8.32294 16.4698 9.60121 16.9598 10.5919 17.8497H16.8828V3.72979C16.8828 3.50371 16.6989 3.3198 16.4728 3.3198H11.381C11.1545 3.3198 10.971 3.13626 10.971 2.9098C10.971 2.68334 11.1546 2.49981 11.381 2.49981H16.4728C17.151 2.49981 17.7028 3.05161 17.7028 3.72984V5.58747H21.6152C22.2873 5.58747 22.926 5.87813 23.3674 6.38503L24.7283 7.94772C24.877 8.11851 24.8591 8.37746 24.6883 8.52621C24.6107 8.59386 24.5148 8.627 24.4192 8.627C24.3048 8.627 24.1909 8.57931 24.1099 8.48629L22.749 6.92354C22.4633 6.59552 22.0501 6.40745 21.6152 6.40745H19.8529V12.2607H26.0802V11.5164C26.0802 11.0214 25.9012 10.5433 25.5761 10.1701L25.3882 9.95432C25.2395 9.78353 25.2574 9.52458 25.4282 9.37583C25.5989 9.22708 25.8579 9.24502 26.0067 9.41576L26.1945 9.6315C26.6496 10.154 26.9002 10.8235 26.9002 11.5164V17.8498H27.0434C27.5708 17.8498 28 18.2789 28 18.8064V21.3147C28 21.8422 27.5708 22.2714 27.0433 22.2714H24.9951C24.7907 24.0855 23.2478 25.5002 21.3801 25.5002C19.5123 25.5002 17.9694 24.0855 17.765 22.2714H17.3609C17.1344 22.2714 16.9509 22.0879 16.9509 21.8614C16.9509 21.635 17.1345 21.4514 17.3609 21.4514H17.765C17.9694 19.6373 19.5123 18.2226 21.3801 18.2226C23.2478 18.2226 24.7907 19.6373 24.9951 21.4514H27.0433C27.1187 21.4514 27.18 21.3901 27.18 21.3148V18.8065C27.18 18.7311 27.1187 18.6698 27.0433 18.6698H24.9703C24.7739 18.6698 24.5865 18.5983 24.4424 18.4682C23.601 17.7084 22.5135 17.2899 21.3801 17.2899C20.2467 17.2899 19.1592 17.7084 18.3177 18.4683C18.1738 18.5983 17.9863 18.6698 17.7898 18.6698H10.5811C10.3847 18.6698 10.1973 18.5983 10.0531 18.4682C9.21184 17.7084 8.12427 17.2899 6.99087 17.2899C5.85747 17.2899 4.76995 17.7084 3.92853 18.4683C3.78459 18.5983 3.59713 18.6698 3.40063 18.6698H0.956539C0.88118 18.6698 0.819876 18.7311 0.819876 18.8065V21.3148C0.819876 21.3901 0.88118 21.4514 0.956539 21.4514H3.37575C3.58017 19.6373 5.12307 18.2226 6.99081 18.2226C8.85855 18.2226 10.4015 19.6373 10.6059 21.4514H15.454C15.6805 21.4514 15.864 21.635 15.864 21.8614C15.864 22.0879 15.6804 22.2714 15.454 22.2714H10.6059C10.4015 24.0855 8.85855 25.5002 6.99081 25.5002C5.12307 25.5002 3.58017 24.0855 3.37575 22.2714H0.956539C0.429024 22.2714 -0.000164032 21.8422 -0.000164032 21.3147V18.8064C0 18.2789 0.429188 17.8498 0.956703 17.8498ZM21.3801 19.0426C19.8259 19.0426 18.5613 20.3071 18.5613 21.8614C18.5613 23.4158 19.8258 24.6802 21.3801 24.6802C22.9345 24.6802 24.1989 23.4158 24.1989 21.8614C24.1989 20.3071 22.9344 19.0426 21.3801 19.0426ZM26.0802 14.7768H24.7169C24.5005 14.7768 24.3245 14.9529 24.3245 15.1693V15.3408C24.3245 15.5572 24.5005 15.7331 24.7169 15.7331H26.0802V14.7768ZM21.3801 16.4698C22.7121 16.4698 23.9904 16.9599 24.981 17.8498H26.0803V16.5532H24.7169C24.0484 16.5532 23.5045 16.0093 23.5045 15.3408V15.1693C23.5045 14.5007 24.0484 13.9568 24.7169 13.9568H26.0802V13.0807H19.7162C19.3394 13.0807 19.0329 12.7742 19.0329 12.3974V6.40745H17.7028V17.8498H17.7793C18.77 16.9597 20.0482 16.4698 21.3801 16.4698ZM6.99098 24.6802C8.54525 24.6802 9.80979 23.4157 9.80979 21.8614C9.80979 20.307 8.5453 19.0426 6.99098 19.0426C5.43665 19.0426 4.17216 20.307 4.17216 21.8614C4.17216 23.4157 5.4367 24.6802 6.99098 24.6802Z" fill="white"/>
<path d="M21.3802 23.4246C20.5183 23.4246 19.8171 22.7234 19.8171 21.8615C19.8171 20.9995 20.5183 20.2983 21.3802 20.2983C22.2422 20.2983 22.9434 20.9995 22.9434 21.8615C22.9434 22.7234 22.2421 23.4246 21.3802 23.4246ZM21.3802 21.1183C20.9705 21.1183 20.6371 21.4516 20.6371 21.8615C20.6371 22.2713 20.9705 22.6046 21.3802 22.6046C21.79 22.6046 22.1234 22.2713 22.1234 21.8615C22.1234 21.4516 21.7899 21.1183 21.3802 21.1183Z" fill="white"/>
<path d="M6.99156 20.2983C7.85348 20.2983 8.55469 20.9995 8.55469 21.8615C8.55469 22.7234 7.85348 23.4246 6.99156 23.4246C6.12963 23.4246 5.42842 22.7234 5.42842 21.8615C5.42842 20.9995 6.12963 20.2983 6.99156 20.2983ZM6.99156 22.6046C7.40133 22.6046 7.7347 22.2713 7.7347 21.8615C7.7347 21.4516 7.40133 21.1183 6.99156 21.1183C6.58178 21.1183 6.24841 21.4516 6.24841 21.8615C6.24841 22.2713 6.58178 22.6046 6.99156 22.6046Z" fill="white"/>
<path d="M21.1121 13.991H22.173C22.3995 13.991 22.583 14.1745 22.583 14.401C22.583 14.6274 22.3994 14.811 22.173 14.811H21.1121C20.8857 14.811 20.7021 14.6274 20.7021 14.401C20.7021 14.1745 20.8857 13.991 21.1121 13.991Z" fill="white"/>
<path d="M5.01053 9.34415C5.23699 9.34415 5.42052 9.16062 5.42052 8.93416C5.42052 8.7077 5.23694 8.52417 5.01053 8.52417H3.62191C3.39544 8.52417 3.21191 8.7077 3.21191 8.93416V12.3603C3.21191 12.5867 3.3955 12.7703 3.62191 12.7703C3.84837 12.7703 4.0319 12.5867 4.0319 12.3603V11.0248H4.90023C5.12669 11.0248 5.31022 10.8412 5.31022 10.6148C5.31022 10.3883 5.12663 10.2048 4.90023 10.2048H4.0319V9.34421H5.01053V9.34415Z" fill="white"/>
<path d="M11.9076 9.3505C12.1341 9.3505 12.3176 9.16697 12.3176 8.94051C12.3176 8.71405 12.1341 8.53052 11.9076 8.53052H10.4666C10.2402 8.53052 10.0566 8.71405 10.0566 8.94051V12.3604C10.0566 12.5869 10.2402 12.7704 10.4666 12.7704H11.9076C12.1341 12.7704 12.3176 12.5869 12.3176 12.3604C12.3176 12.1339 12.1341 11.9504 11.9076 11.9504H10.8767V11.0605H11.8014C12.0279 11.0605 12.2114 10.8769 12.2114 10.6505C12.2114 10.424 12.0278 10.2405 11.8014 10.2405H10.8767V9.35061H11.9076V9.3505Z" fill="white"/>
<path d="M15.1166 9.3505C15.3431 9.3505 15.5266 9.16697 15.5266 8.94051C15.5266 8.71405 15.343 8.53052 15.1166 8.53052H13.6756C13.4492 8.53052 13.2656 8.71405 13.2656 8.94051V12.3604C13.2656 12.5869 13.4492 12.7704 13.6756 12.7704H15.1166C15.3431 12.7704 15.5266 12.5869 15.5266 12.3604C15.5266 12.1339 15.343 11.9504 15.1166 11.9504H14.0857V11.0605H15.0104C15.2369 11.0605 15.4204 10.8769 15.4204 10.6505C15.4204 10.424 15.2368 10.2405 15.0104 10.2405H14.0857V9.35061H15.1166V9.3505Z" fill="white"/>
<path d="M9.08051 9.82181C9.08051 9.10114 8.4714 8.51489 7.72278 8.51489H6.80562C6.80545 8.51489 6.80523 8.51489 6.80507 8.51489C6.80491 8.51489 6.80469 8.51489 6.80452 8.51489C6.57806 8.51489 6.39453 8.69842 6.39453 8.92488V12.3763C6.39453 12.6027 6.57812 12.7863 6.80452 12.7863C7.03099 12.7863 7.21452 12.6027 7.21452 12.3763V11.3425L8.36274 12.6471C8.44378 12.7392 8.55693 12.7863 8.67068 12.7863C8.76688 12.7863 8.86351 12.7526 8.94138 12.684C9.11135 12.5345 9.12787 12.2754 8.9783 12.1054L8.07847 11.083C8.65509 10.9321 9.08051 10.424 9.08051 9.82181ZM7.72273 10.3088C7.60564 10.3088 7.40379 10.3097 7.2196 10.3105C7.21867 10.1306 7.2173 9.52333 7.21681 9.33488H7.72273C8.01421 9.33488 8.26047 9.55789 8.26047 9.82181C8.26047 10.0858 8.01421 10.3088 7.72273 10.3088Z" fill="white"/>
</g>
<defs>
<clipPath id="clip0">
<rect width="28" height="28" fill="white" transform="matrix(-1 0 0 1 28 0)"/>
</clipPath>
</defs>
</svg>
