<svg width="25" height="25" viewBox="0 0 25 25" fill="none" xmlns="http://www.w3.org/2000/svg">
<path d="M2 4.5H23C23.8284 4.5 24.5 5.17157 24.5 6V15.6543C24.5 16.4827 23.8284 17.1543 23 17.1543H17.8654C16.4849 17.1543 15.3654 18.2727 15.3654 19.6536V21.9412C15.1557 21.753 14.9013 21.4971 14.6168 21.1899C13.7432 20.247 12.7039 18.9535 12.0584 18.1303C11.5794 17.5196 10.8469 17.1543 10.0644 17.1543H2C1.17157 17.1543 0.5 16.4827 0.5 15.6543V6C0.5 5.17157 1.17157 4.5 2 4.5ZM15.365 22.5397C15.3649 22.5395 15.365 22.5379 15.3653 22.535C15.3652 22.5383 15.3651 22.5398 15.365 22.5397ZM15.7878 22.2583C15.7906 22.2592 15.7921 22.2598 15.7921 22.2598C15.7921 22.2599 15.7907 22.2595 15.7878 22.2583Z" stroke="white"/>
</svg>
