<svg width="19" height="37" viewBox="0 0 19 37" fill="none" xmlns="http://www.w3.org/2000/svg">
<path d="M8.468 36.544L8.432 31.468C7.688 31.348 6.92 31.156 6.128 30.892C5.336 30.604 4.592 30.244 3.896 29.812L3.968 31.324H1.196V22.9H3.536C3.872 24.916 4.592 26.44 5.696 27.472C6.8 28.48 8.192 28.984 9.872 28.984C11.144 28.984 12.128 28.648 12.824 27.976C13.52 27.28 13.868 26.416 13.868 25.384C13.868 24.568 13.616 23.908 13.112 23.404C12.632 22.9 11.984 22.468 11.168 22.108C10.376 21.724 9.524 21.352 8.612 20.992C7.22 20.416 5.924 19.744 4.724 18.976C3.548 18.184 2.6 17.236 1.88 16.132C1.16 15.004 0.8 13.66 0.8 12.1C0.8 11.38 0.908 10.636 1.124 9.868C1.34 9.1 1.712 8.38 2.24 7.708C2.768 7.036 3.5 6.472 4.436 6.016C5.372 5.56 6.56 5.296 8 5.224V0.868H11.384L11.348 5.584C11.876 5.728 12.38 5.908 12.86 6.124C13.364 6.34 13.832 6.616 14.264 6.952L14.156 5.476H16.964V13.864H14.588C14.276 11.872 13.664 10.36 12.752 9.328C11.864 8.296 10.568 7.792 8.864 7.816C7.856 7.816 7.04 8.104 6.416 8.68C5.792 9.256 5.48 10 5.48 10.912C5.48 11.656 5.648 12.292 5.984 12.82C6.32 13.324 6.884 13.816 7.676 14.296C8.492 14.776 9.584 15.328 10.952 15.952C11.84 16.336 12.74 16.78 13.652 17.284C14.564 17.764 15.392 18.328 16.136 18.976C16.904 19.624 17.516 20.38 17.972 21.244C18.428 22.108 18.656 23.128 18.656 24.304C18.656 26.2 18.056 27.796 16.856 29.092C15.68 30.364 13.988 31.156 11.78 31.468L11.744 36.544H8.468Z" fill="#2C2C2C"/>
</svg>
