<svg width="15" height="31" viewBox="0 0 15 31" fill="none" xmlns="http://www.w3.org/2000/svg">
<path d="M6.53 30.59L6.5 26.45C5.84 26.39 5.14 26.24 4.4 26C3.68 25.76 3.04 25.47 2.48 25.13L2.6 26.36H0.74V19.79H2.09C2.27 21.57 2.84 22.88 3.8 23.72C4.76 24.56 6 24.98 7.52 24.98C8.66 24.98 9.57 24.65 10.25 23.99C10.95 23.33 11.3 22.49 11.3 21.47C11.3 20.65 11.06 19.97 10.58 19.43C10.12 18.87 9.52 18.38 8.78 17.96C8.04 17.54 7.25 17.13 6.41 16.73C5.41 16.25 4.46 15.72 3.56 15.14C2.66 14.54 1.92 13.83 1.34 13.01C0.78 12.17 0.5 11.14 0.5 9.92C0.5 9.4 0.59 8.84 0.77 8.24C0.97 7.64 1.29 7.06 1.73 6.5C2.17 5.94 2.76 5.48 3.5 5.12C4.26 4.76 5.19 4.56 6.29 4.52V0.979998H8.3L8.27 4.61C8.79 4.69 9.3 4.83 9.8 5.03C10.32 5.21 10.82 5.48 11.3 5.84L11.18 4.58H12.98V11.27H11.57C11.47 10.27 11.25 9.37 10.91 8.57C10.59 7.77 10.1 7.14 9.44 6.68C8.78 6.22 7.9 5.99 6.8 5.99C5.68 5.99 4.83 6.32 4.25 6.98C3.69 7.64 3.41 8.39 3.41 9.23C3.41 10.31 3.82 11.18 4.64 11.84C5.46 12.48 6.55 13.13 7.91 13.79C8.67 14.17 9.42 14.57 10.16 14.99C10.92 15.41 11.61 15.88 12.23 16.4C12.85 16.92 13.35 17.54 13.73 18.26C14.11 18.96 14.3 19.79 14.3 20.75C14.3 21.71 14.08 22.6 13.64 23.42C13.22 24.24 12.58 24.92 11.72 25.46C10.86 26 9.78 26.33 8.48 26.45V30.59H6.53Z" fill="#2C2C2C"/>
</svg>
