<svg width="19" height="38" viewBox="0 0 19 38" fill="none" xmlns="http://www.w3.org/2000/svg">
<path d="M8.538 37.814L8.5 32.57C7.664 32.494 6.77733 32.304 5.84 32C4.928 31.696 4.11733 31.3287 3.408 30.898L3.56 32.456H1.204V24.134H2.914C3.142 26.3887 3.864 28.048 5.08 29.112C6.296 30.176 7.86667 30.708 9.792 30.708C11.236 30.708 12.3887 30.29 13.25 29.454C14.1367 28.618 14.58 27.554 14.58 26.262C14.58 25.2233 14.276 24.362 13.668 23.678C13.0853 22.9687 12.3253 22.348 11.388 21.816C10.4507 21.284 9.45 20.7647 8.386 20.258C7.11933 19.65 5.916 18.9787 4.776 18.244C3.636 17.484 2.69867 16.5847 1.964 15.546C1.25467 14.482 0.9 13.1773 0.9 11.632C0.9 10.9733 1.014 10.264 1.242 9.504C1.49533 8.744 1.90067 8.00933 2.458 7.3C3.01533 6.59067 3.76267 6.008 4.7 5.552C5.66267 5.096 6.84067 4.84267 8.234 4.792V0.307998H10.78L10.742 4.906C11.4007 5.00733 12.0467 5.18466 12.68 5.438C13.3387 5.666 13.972 6.008 14.58 6.464L14.428 4.868H16.708V13.342H14.922C14.7953 12.0753 14.5167 10.9353 14.086 9.922C13.6807 8.90866 13.06 8.11066 12.224 7.528C11.388 6.94533 10.2733 6.654 8.88 6.654C7.46133 6.654 6.38467 7.072 5.65 7.908C4.94067 8.744 4.586 9.694 4.586 10.758C4.586 12.126 5.10533 13.228 6.144 14.064C7.18267 14.8747 8.56333 15.698 10.286 16.534C11.2487 17.0153 12.1987 17.522 13.136 18.054C14.0987 18.586 14.9727 19.1813 15.758 19.84C16.5433 20.4987 17.1767 21.284 17.658 22.196C18.1393 23.0827 18.38 24.134 18.38 25.35C18.38 26.566 18.1013 27.6933 17.544 28.732C17.012 29.7707 16.2013 30.632 15.112 31.316C14.0227 32 12.6547 32.418 11.008 32.57V37.814H8.538Z" fill="#2C2C2C"/>
</svg>
