<svg width="92" height="92" viewBox="0 0 92 92" fill="none" xmlns="http://www.w3.org/2000/svg">
<path d="M45.6649 0C20.4837 0 0 20.4857 0 45.6649C0 70.844 20.4837 91.3297 45.6649 91.3297C70.846 91.3297 91.3297 70.844 91.3297 45.6649C91.3297 20.4857 70.846 0 45.6649 0ZM45.6649 87.5244C22.5834 87.5244 3.80535 68.7463 3.80535 45.6649C3.80535 22.5834 22.5834 3.80535 45.6649 3.80535C68.7463 3.80535 87.5244 22.5834 87.5244 45.6649C87.5244 68.7463 68.7463 87.5244 45.6649 87.5244Z" fill="#FDBEDB"/>
<path fill-rule="evenodd" clip-rule="evenodd" d="M63.819 44.065L37.1812 26.9406C36.5977 26.5598 35.8434 26.5393 35.2413 26.87C34.6281 27.2045 34.249 27.8438 34.249 28.5405V62.7892C34.249 63.4859 34.6281 64.1252 35.2413 64.4597C35.5237 64.614 35.8396 64.6919 36.1518 64.6919C36.5085 64.6919 36.869 64.5915 37.1812 64.389L63.819 47.2647C64.3616 46.9154 64.6923 46.3115 64.6923 45.6648C64.6923 45.0182 64.3616 44.4144 63.819 44.065ZM38.0544 32.0264V59.3033L59.2703 45.6648L38.0544 32.0264Z" fill="#FDBEDB"/>
<path d="M38.0544 59.3033V32.0264L59.2703 45.6648L38.0544 59.3033Z" fill="#FDBEDB"/>
</svg>
