<svg width="25" height="25" viewBox="0 0 25 25" fill="none" xmlns="http://www.w3.org/2000/svg">
<path d="M12.5017 18C12.2964 18 12.1237 17.9347 11.9837 17.804C11.853 17.664 11.7877 17.4913 11.7877 17.286V11.056C11.7877 10.8413 11.853 10.6687 11.9837 10.538C12.1237 10.4073 12.2964 10.342 12.5017 10.342C12.7164 10.342 12.889 10.4073 13.0197 10.538C13.1504 10.6687 13.2157 10.8413 13.2157 11.056V17.286C13.2157 17.4913 13.1504 17.664 13.0197 17.804C12.889 17.9347 12.7164 18 12.5017 18ZM12.5017 9.096C12.2497 9.096 12.0304 9.00733 11.8437 8.83C11.6664 8.64333 11.5777 8.424 11.5777 8.172C11.5777 7.92 11.6664 7.70533 11.8437 7.528C12.0304 7.34133 12.2497 7.248 12.5017 7.248C12.7537 7.248 12.9684 7.34133 13.1457 7.528C13.3324 7.70533 13.4257 7.92 13.4257 8.172C13.4257 8.424 13.3324 8.64333 13.1457 8.83C12.9684 9.00733 12.7537 9.096 12.5017 9.096Z" fill="#EAA8C6"/>
<circle cx="12.5" cy="12.5" r="12" stroke="#EAA8C6"/>
</svg>
