<svg width="25" height="25" viewBox="0 0 25 25" fill="none" xmlns="http://www.w3.org/2000/svg">
<g clip-path="url(#clip0)">
<path d="M5.72983 7.2502H24.4798C24.7677 7.2502 25.0007 7.01724 25.0007 6.72935C25.0007 6.44146 24.7677 6.2085 24.4798 6.2085H5.72983C5.44194 6.2085 5.20898 6.44146 5.20898 6.72935C5.20903 7.01724 5.44199 7.2502 5.72983 7.2502Z" fill="#EAA8C6"/>
<path d="M24.4798 12.9792H5.72983C5.44194 12.9792 5.20898 13.2122 5.20898 13.5001C5.20898 13.788 5.44194 14.021 5.72983 14.021H24.4798C24.7677 14.021 25.0007 13.788 25.0007 13.5001C25.0007 13.2122 24.7677 12.9792 24.4798 12.9792Z" fill="#EAA8C6"/>
<path d="M24.4798 19.75H5.72983C5.44194 19.75 5.20898 19.983 5.20898 20.2708C5.20898 20.5587 5.44194 20.7917 5.72983 20.7917H24.4798C24.7677 20.7917 25.0007 20.5587 25.0007 20.2708C25.0007 19.983 24.7677 19.75 24.4798 19.75Z" fill="#EAA8C6"/>
<path d="M2.60415 5.16675H0.52085C0.232959 5.16675 0 5.39971 0 5.6876V7.77094C0 8.05884 0.232959 8.29179 0.52085 8.29179H2.6042C2.89209 8.29179 3.12505 8.05884 3.12505 7.77094V5.6876C3.125 5.39971 2.89204 5.16675 2.60415 5.16675ZM2.08335 7.2501H1.56248C1.27483 7.2501 1.04165 7.01691 1.04165 6.72927C1.04165 6.44163 1.27483 6.20845 1.56248 6.20845C1.85012 6.20845 2.0833 6.44163 2.0833 6.72927V7.25005C2.0833 7.25007 2.08332 7.2501 2.08335 7.2501Z" fill="#EAA8C6"/>
<path d="M2.60415 11.9375H0.52085C0.232959 11.9375 0 12.1705 0 12.4583V14.5417C0 14.8295 0.232959 15.0625 0.52085 15.0625H2.6042C2.89204 15.0625 3.125 14.8295 3.125 14.5417V12.4583C3.125 12.1705 2.89204 11.9375 2.60415 11.9375ZM2.08335 14.0208H1.56248C1.27483 14.0208 1.04165 13.7877 1.04165 13.5C1.04165 13.2124 1.27483 12.9792 1.56248 12.9792C1.85012 12.9792 2.0833 13.2124 2.0833 13.5V14.0208C2.0833 14.0208 2.08332 14.0208 2.08335 14.0208Z" fill="#EAA8C6"/>
<path d="M2.60415 18.7085H0.52085C0.232959 18.7085 0 18.9415 0 19.2293V21.3126C0 21.6005 0.232959 21.8335 0.52085 21.8335H2.6042C2.89204 21.8335 3.125 21.6005 3.125 21.3126V19.2293C3.125 18.9415 2.89204 18.7085 2.60415 18.7085ZM2.08335 20.7918H1.56248C1.27483 20.7918 1.04165 20.5586 1.04165 20.271C1.04165 19.9833 1.27483 19.7501 1.56248 19.7501C1.85012 19.7501 2.0833 19.9833 2.0833 20.271V20.7917C2.0833 20.7918 2.08332 20.7918 2.08335 20.7918Z" fill="#EAA8C6"/>
</g>
<defs>
<clipPath id="clip0">
<rect width="25" height="25" fill="white"/>
</clipPath>
</defs>
</svg>
