<svg width="24" height="22" viewBox="0 0 24 22" fill="none" xmlns="http://www.w3.org/2000/svg">
<path d="M13.3259 10.6895L23.7254 1.42567C24.0915 1.09952 24.0915 0.570725 23.7254 0.244614C23.3593 -0.0814964 22.7656 -0.0815381 22.3995 0.244614L12 9.50841L1.60046 0.244614C1.23432 -0.0815381 0.640697 -0.0815381 0.274605 0.244614C-0.091488 0.570767 -0.0915349 1.09956 0.274605 1.42567L10.6741 10.6894L0.274605 19.9532C-0.0915349 20.2794 -0.0915349 20.8082 0.274605 21.1343C0.457651 21.2973 0.697603 21.3788 0.937556 21.3788C1.17751 21.3788 1.41741 21.2973 1.60051 21.1343L12 11.8705L22.3995 21.1343C22.5825 21.2973 22.8225 21.3788 23.0624 21.3788C23.3024 21.3788 23.5423 21.2973 23.7254 21.1343C24.0915 20.8081 24.0915 20.2793 23.7254 19.9532L13.3259 10.6895Z" fill="#545454"/>
</svg>
