<svg width="24" height="24" viewBox="0 0 24 24" fill="none" xmlns="http://www.w3.org/2000/svg">
<circle cx="12" cy="12" r="12" fill="#EAA8C6"/>
<path d="M12.5068 13.78C12.3308 13.78 12.1828 13.724 12.0628 13.612C11.9508 13.492 11.8948 13.344 11.8948 13.168C11.8948 12.856 11.9748 12.516 12.1348 12.148C12.2948 11.772 12.5428 11.44 12.8788 11.152C13.1028 10.96 13.3068 10.772 13.4908 10.588C13.6828 10.396 13.8348 10.18 13.9468 9.94C14.0668 9.692 14.1268 9.392 14.1268 9.04C14.1268 8.784 14.0668 8.544 13.9468 8.32C13.8268 8.096 13.6548 7.916 13.4308 7.78C13.2148 7.636 12.9468 7.564 12.6268 7.564C12.0428 7.564 11.6068 7.724 11.3188 8.044C11.0388 8.356 10.8988 8.768 10.8988 9.28C10.8988 9.456 10.8428 9.604 10.7308 9.724C10.6188 9.836 10.4708 9.892 10.2868 9.892C10.1108 9.892 9.96275 9.836 9.84275 9.724C9.73075 9.604 9.67475 9.456 9.67475 9.28C9.67475 8.72 9.79475 8.228 10.0348 7.804C10.2828 7.38 10.6268 7.048 11.0668 6.808C11.5148 6.56 12.0348 6.436 12.6268 6.436C13.1468 6.436 13.6068 6.548 14.0068 6.772C14.4148 6.988 14.7348 7.292 14.9668 7.684C15.2068 8.068 15.3268 8.52 15.3268 9.04C15.3268 9.488 15.2548 9.876 15.1108 10.204C14.9668 10.532 14.7708 10.828 14.5228 11.092C14.2748 11.348 13.9908 11.604 13.6708 11.86C13.4628 12.028 13.3188 12.248 13.2388 12.52C13.1588 12.784 13.1188 13 13.1188 13.168C13.1188 13.344 13.0628 13.492 12.9508 13.612C12.8388 13.724 12.6908 13.78 12.5068 13.78ZM12.5068 16C12.2828 16 12.0868 15.92 11.9188 15.76C11.7588 15.592 11.6788 15.396 11.6788 15.172C11.6788 14.94 11.7588 14.744 11.9188 14.584C12.0868 14.416 12.2828 14.332 12.5068 14.332C12.7388 14.332 12.9348 14.416 13.0948 14.584C13.2628 14.744 13.3468 14.94 13.3468 15.172C13.3468 15.396 13.2628 15.592 13.0948 15.76C12.9348 15.92 12.7388 16 12.5068 16Z" fill="white"/>
</svg>
